# xmcd
#
# Track frame offsets:
#  150
#  20293
#  37205
#  54910
#  70342
#  94605
#  113862
#  135309
#  150191
#  167939
#  189652
#  207331
#
# Disc length: 2945 seconds
#
# Revision: 0
# Processed by: cddbd v1.5.2PL0 Copyright (c) Steve Scherf et al.
# Submitted via: Collectorz.com_Music_Collector 6.11
#
DISCID=9b0b7f0c
DTITLE=Buffalo C. Wayne - Gunflower
DYEAR=1900
DGENRE=
TTITLE0=Hooked On A Redneck Girl
TTITLE1=California Lady
TTITLE2=Country Girl
TTITLE3=Tonight I Found Gold
TTITLE4=God Bless My Ex
TTITLE5=When I Was Young
TTITLE6=If You Can't Forgive
TTITLE7=Blame It On Me
TTITLE8=Her Daddy's Got A Gun
TTITLE9=Love Ride In The Night
TTITLE10=Revolutionary
TTITLE11=Music Ties The Nations
EXTD=
EXTT0=
EXTT1=
EXTT2=
EXTT3=
EXTT4=
EXTT5=
EXTT6=
EXTT7=
EXTT8=
EXTT9=
EXTT10=
EXTT11=
PLAYORDER=
